<svg width="1440" height="156" viewBox="0 0 1440 156" fill="none" xmlns="http://www.w3.org/2000/svg">
<path d="M141.11 85.1299C141.11 87.0699 140.81 88.4599 140.21 89.2999C139.61 90.1399 138.51 90.5599 136.91 90.5599H119.06C117.94 90.5599 117.05 90.2099 116.39 89.5099C115.75 88.8099 115.43 87.8499 115.43 86.6299V49.9099L115.79 49.5199H139.94C140.04 49.9999 140.1 50.4599 140.12 50.8999C140.14 51.3199 140.15 51.7099 140.15 52.0699C140.15 52.4299 140.11 52.8799 140.03 53.4199C139.95 53.9399 139.82 54.4399 139.64 54.9199H125.42C124.98 54.9199 124.41 54.9199 123.71 54.9199C123.03 54.9199 122.34 54.9099 121.64 54.8899C121.64 55.6899 121.65 56.3499 121.67 56.8699C121.69 57.3899 121.7 58.0499 121.7 58.8499V67.1899C122.4 67.1899 123.08 67.1899 123.74 67.1899C124.42 67.1699 124.98 67.1599 125.42 67.1599H136.7C136.8 67.5799 136.88 68.0399 136.94 68.5399C137 69.0399 137.03 69.4599 137.03 69.7999C137.03 70.1599 137 70.5899 136.94 71.0899C136.88 71.5699 136.8 72.0299 136.7 72.4699H125.42C124.98 72.4699 124.42 72.4699 123.74 72.4699C123.08 72.4499 122.4 72.4299 121.7 72.4099V82.2199C121.7 82.7599 121.69 83.2599 121.67 83.7199C121.65 84.1799 121.64 84.6899 121.64 85.2499C122.22 85.2099 122.83 85.1799 123.47 85.1599C124.11 85.1399 124.82 85.1299 125.6 85.1299H141.11ZM146.126 82.4299C146.126 80.1499 146.626 78.2799 147.626 76.8199C148.646 75.3599 150.016 74.2799 151.736 73.5799C153.476 72.8599 155.426 72.4999 157.586 72.4999C158.426 72.4999 159.346 72.5299 160.346 72.5899C161.366 72.6299 162.376 72.7199 163.376 72.8599V70.5499C163.376 68.6699 162.946 67.3199 162.086 66.4999C161.226 65.6799 160.026 65.2699 158.486 65.2699C156.966 65.2699 155.396 65.4999 153.776 65.9599C152.176 66.3999 150.596 66.9299 149.036 67.5499C148.536 67.0499 148.116 66.3699 147.776 65.5099C147.436 64.6299 147.246 63.7899 147.206 62.9899C148.906 62.2699 150.896 61.6299 153.176 61.0699C155.476 60.5099 157.646 60.2299 159.686 60.2299C162.626 60.2299 164.996 61.0499 166.796 62.6899C168.596 64.3299 169.496 66.8699 169.496 70.3099V82.6099C169.496 83.7299 169.596 84.7199 169.796 85.5799C170.016 86.4199 170.476 87.1399 171.176 87.7399C170.996 88.2999 170.686 88.8999 170.246 89.5399C169.806 90.1599 169.336 90.6299 168.836 90.9499C167.596 90.7099 166.586 90.2499 165.806 89.5699C165.046 88.8899 164.466 88.0899 164.066 87.1699C162.986 88.2099 161.686 89.1599 160.166 90.0199C158.646 90.8599 156.906 91.2799 154.946 91.2799C152.966 91.2799 151.316 90.8399 149.996 89.9599C148.696 89.0799 147.726 87.9599 147.086 86.5999C146.446 85.2399 146.126 83.8499 146.126 82.4299ZM152.276 82.0099C152.276 83.2299 152.626 84.2699 153.326 85.1299C154.026 85.9699 155.026 86.3899 156.326 86.3899C157.446 86.3899 158.636 86.0799 159.896 85.4599C161.156 84.8399 162.316 83.9299 163.376 82.7299V77.0599C162.476 76.9599 161.556 76.8899 160.616 76.8499C159.696 76.8099 158.816 76.7899 157.976 76.7899C156.156 76.7899 154.746 77.2499 153.746 78.1699C152.766 79.0899 152.276 80.3699 152.276 82.0099ZM179.071 55.6399C179.071 54.2599 179.301 53.2599 179.761 52.6399C180.221 51.9999 181.111 51.6799 182.431 51.6799H184.771L185.131 52.0699V60.9199L192.571 60.8299C192.751 61.6099 192.841 62.3599 192.841 63.0799C192.841 63.8999 192.751 64.6699 192.571 65.3899L185.131 65.2999V83.2399C185.131 84.0399 185.321 84.6799 185.701 85.1599C186.081 85.6199 186.721 85.8499 187.621 85.8499H191.731C192.071 86.7699 192.241 87.8099 192.241 88.9699C192.241 89.2099 192.231 89.4499 192.211 89.6899C192.211 89.9099 192.181 90.1199 192.121 90.3199C191.121 90.4399 190.051 90.5399 188.911 90.6199C187.771 90.7199 186.611 90.7699 185.431 90.7699C181.191 90.7699 179.071 88.7099 179.071 84.5899V65.3299L174.691 65.3899C174.511 64.6699 174.421 63.8999 174.421 63.0799C174.421 62.3599 174.511 61.6099 174.691 60.8299L179.071 60.8899V55.6399ZM195.473 88.3099C195.493 87.6099 195.703 86.8299 196.103 85.9699C196.503 85.1099 196.973 84.4399 197.513 83.9599C198.773 84.6599 200.123 85.2799 201.563 85.8199C203.003 86.3599 204.463 86.6299 205.943 86.6299C207.583 86.6299 208.873 86.2799 209.813 85.5799C210.773 84.8799 211.263 83.9799 211.283 82.8799C211.283 81.0799 210.033 79.7199 207.533 78.7999L204.053 77.5099C201.973 76.7499 200.183 75.6999 198.683 74.3599C197.183 73.0199 196.433 71.2199 196.433 68.9599C196.433 67.1199 196.893 65.5399 197.813 64.2199C198.753 62.8999 200.023 61.8899 201.623 61.1899C203.223 60.4699 205.033 60.1099 207.053 60.1099C208.673 60.1099 210.393 60.3199 212.213 60.7399C214.053 61.1599 215.593 61.6699 216.833 62.2699C216.853 63.0299 216.693 63.8599 216.353 64.7599C216.013 65.6599 215.573 66.3399 215.033 66.7999C213.973 66.3399 212.743 65.8999 211.343 65.4799C209.943 65.0599 208.503 64.8499 207.023 64.8499C205.703 64.8499 204.643 65.1699 203.843 65.8099C203.063 66.4299 202.673 67.2699 202.673 68.3299C202.673 69.1699 202.973 69.8699 203.573 70.4299C204.193 70.9899 205.133 71.4999 206.393 71.9599L210.083 73.3099C212.323 74.1299 214.153 75.2699 215.573 76.7299C216.993 78.1699 217.703 80.0399 217.703 82.3399C217.703 85.1199 216.623 87.3099 214.463 88.9099C212.323 90.4899 209.483 91.2799 205.943 91.2799C203.823 91.2799 201.873 90.9799 200.093 90.3799C198.313 89.7799 196.773 89.0899 195.473 88.3099Z" fill="#009CBF"/>
<path d="M122.711 105.824C122.711 106.652 122.489 107.354 122.045 107.93C121.601 108.5 121.052 108.89 120.398 109.1C120.698 109.208 120.953 109.403 121.163 109.685C121.379 109.961 121.55 110.276 121.676 110.63L122.468 112.736C122.6 113.09 122.726 113.363 122.846 113.555C122.972 113.747 123.116 113.906 123.278 114.032C123.152 114.224 122.963 114.371 122.711 114.473C122.465 114.575 122.222 114.626 121.982 114.626C121.622 114.626 121.358 114.527 121.19 114.329C121.022 114.131 120.866 113.84 120.722 113.456L119.822 111.017C119.672 110.603 119.471 110.258 119.219 109.982C118.967 109.7 118.562 109.559 118.004 109.559H116.537V114.5C116.387 114.53 116.225 114.548 116.051 114.554C115.883 114.566 115.724 114.572 115.574 114.572C115.436 114.572 115.277 114.566 115.097 114.554C114.923 114.548 114.767 114.53 114.629 114.5V102.305L114.746 102.197C115.424 102.185 116.087 102.173 116.735 102.161C117.383 102.143 118.013 102.134 118.625 102.134C119.873 102.134 120.866 102.449 121.604 103.079C122.342 103.709 122.711 104.624 122.711 105.824ZM116.537 103.637V108.029C116.885 108.017 117.242 108.008 117.608 108.002C117.974 107.996 118.28 107.993 118.526 107.993C119.114 107.993 119.567 107.885 119.885 107.669C120.203 107.453 120.422 107.18 120.542 106.85C120.662 106.514 120.722 106.172 120.722 105.824C120.722 105.458 120.662 105.11 120.542 104.78C120.422 104.45 120.203 104.18 119.885 103.97C119.567 103.76 119.114 103.655 118.526 103.655C118.268 103.655 117.947 103.655 117.563 103.655C117.185 103.649 116.843 103.643 116.537 103.637ZM133.144 112.889C133.144 113.471 133.054 113.888 132.874 114.14C132.694 114.392 132.364 114.518 131.884 114.518H126.529C126.193 114.518 125.926 114.413 125.728 114.203C125.536 113.993 125.44 113.705 125.44 113.339V102.323L125.548 102.206H132.793C132.823 102.35 132.841 102.488 132.847 102.62C132.853 102.746 132.856 102.863 132.856 102.971C132.856 103.079 132.844 103.214 132.82 103.376C132.796 103.532 132.757 103.682 132.703 103.826H128.437C128.305 103.826 128.134 103.826 127.924 103.826C127.72 103.826 127.513 103.823 127.303 103.817C127.303 104.057 127.306 104.255 127.312 104.411C127.318 104.567 127.321 104.765 127.321 105.005V107.507C127.531 107.507 127.735 107.507 127.933 107.507C128.137 107.501 128.305 107.498 128.437 107.498H131.821C131.851 107.624 131.875 107.762 131.893 107.912C131.911 108.062 131.92 108.188 131.92 108.29C131.92 108.398 131.911 108.527 131.893 108.677C131.875 108.821 131.851 108.959 131.821 109.091H128.437C128.305 109.091 128.137 109.091 127.933 109.091C127.735 109.085 127.531 109.079 127.321 109.073V112.016C127.321 112.178 127.318 112.328 127.312 112.466C127.306 112.604 127.303 112.757 127.303 112.925C127.477 112.913 127.66 112.904 127.852 112.898C128.044 112.892 128.257 112.889 128.491 112.889H133.144ZM134.555 113.393C134.579 113.111 134.669 112.835 134.825 112.565C134.987 112.289 135.164 112.073 135.356 111.917C135.878 112.259 136.457 112.547 137.093 112.781C137.729 113.015 138.356 113.132 138.974 113.132C139.7 113.132 140.264 112.976 140.666 112.664C141.068 112.346 141.269 111.938 141.269 111.44C141.269 111.02 141.128 110.648 140.846 110.324C140.564 109.994 140.159 109.718 139.631 109.496L137.462 108.587C136.7 108.269 136.094 107.861 135.644 107.363C135.2 106.859 134.978 106.223 134.978 105.455C134.978 104.801 135.149 104.213 135.491 103.691C135.839 103.163 136.319 102.746 136.931 102.44C137.543 102.128 138.251 101.972 139.055 101.972C139.805 101.972 140.51 102.068 141.17 102.26C141.83 102.452 142.394 102.665 142.862 102.899C142.856 103.175 142.787 103.451 142.655 103.727C142.529 103.997 142.367 104.222 142.169 104.402C141.695 104.168 141.179 103.97 140.621 103.808C140.063 103.64 139.553 103.556 139.091 103.556C138.419 103.556 137.891 103.718 137.507 104.042C137.129 104.366 136.94 104.765 136.94 105.239C136.94 105.635 137.078 105.959 137.354 106.211C137.63 106.463 137.99 106.682 138.434 106.868L140.585 107.759C141.353 108.077 141.992 108.515 142.502 109.073C143.018 109.631 143.276 110.315 143.276 111.125C143.276 111.815 143.114 112.433 142.79 112.979C142.472 113.519 141.986 113.948 141.332 114.266C140.678 114.578 139.856 114.734 138.866 114.734C138.116 114.734 137.36 114.614 136.598 114.374C135.836 114.134 135.155 113.807 134.555 113.393ZM147.025 105.131C147.025 104.891 147.025 104.672 147.025 104.474C147.025 104.276 147.025 104.051 147.025 103.799C146.899 103.799 146.725 103.802 146.503 103.808C146.281 103.814 146.107 103.817 145.981 103.817H143.848C143.818 103.679 143.797 103.541 143.785 103.403C143.773 103.265 143.767 103.136 143.767 103.016C143.767 102.896 143.773 102.767 143.785 102.629C143.797 102.491 143.818 102.35 143.848 102.206H152.119C152.191 102.44 152.227 102.692 152.227 102.962C152.227 103.274 152.14 103.496 151.966 103.628C151.792 103.754 151.522 103.817 151.156 103.817H149.977C149.857 103.817 149.683 103.814 149.455 103.808C149.233 103.802 149.062 103.799 148.942 103.799H148.933C148.933 104.051 148.933 104.276 148.933 104.474C148.939 104.672 148.942 104.891 148.942 105.131V114.5C148.786 114.53 148.621 114.548 148.447 114.554C148.279 114.566 148.123 114.572 147.979 114.572C147.835 114.572 147.676 114.566 147.502 114.554C147.334 114.548 147.175 114.53 147.025 114.5V105.131ZM155.461 111.53C155.395 111.53 155.242 111.53 155.002 111.53C154.768 111.524 154.573 111.518 154.417 111.512L153.463 114.518C153.343 114.548 153.211 114.566 153.067 114.572C152.923 114.584 152.779 114.59 152.635 114.59C152.281 114.59 151.969 114.548 151.699 114.464L151.645 114.374L155.704 102.206C155.854 102.182 156.037 102.164 156.253 102.152C156.469 102.14 156.658 102.134 156.82 102.134C156.97 102.134 157.153 102.14 157.369 102.152C157.585 102.164 157.759 102.185 157.891 102.215L161.932 114.383C161.794 114.467 161.623 114.527 161.419 114.563C161.221 114.605 161.02 114.626 160.816 114.626C160.51 114.626 160.273 114.557 160.105 114.419C159.937 114.281 159.793 114.011 159.673 113.609L159.007 111.512C158.851 111.518 158.65 111.524 158.404 111.53C158.158 111.53 158.002 111.53 157.936 111.53H155.461ZM155.947 106.706L154.912 109.955C155.05 109.955 155.218 109.952 155.416 109.946C155.62 109.94 155.758 109.937 155.83 109.937H157.621C157.687 109.937 157.813 109.94 157.999 109.946C158.191 109.946 158.362 109.949 158.512 109.955L157.684 107.354C157.522 106.832 157.354 106.28 157.18 105.698C157.012 105.11 156.868 104.579 156.748 104.105H156.649C156.559 104.507 156.442 104.96 156.298 105.464C156.16 105.962 156.043 106.376 155.947 106.706ZM172.521 110.18C172.521 111.668 172.107 112.799 171.279 113.573C170.451 114.347 169.347 114.734 167.967 114.734C166.593 114.734 165.492 114.347 164.664 113.573C163.842 112.799 163.431 111.668 163.431 110.18V102.242L163.548 102.125H164.277C164.667 102.125 164.943 102.224 165.105 102.422C165.267 102.62 165.348 102.932 165.348 103.358V110.18C165.348 112.184 166.224 113.186 167.976 113.186C169.728 113.186 170.604 112.184 170.604 110.18V102.206C170.748 102.176 170.901 102.158 171.063 102.152C171.231 102.14 171.39 102.134 171.54 102.134C171.684 102.134 171.846 102.14 172.026 102.152C172.212 102.158 172.377 102.176 172.521 102.206V110.18ZM183.707 105.824C183.707 106.652 183.485 107.354 183.041 107.93C182.597 108.5 182.048 108.89 181.394 109.1C181.694 109.208 181.949 109.403 182.159 109.685C182.375 109.961 182.546 110.276 182.672 110.63L183.464 112.736C183.596 113.09 183.722 113.363 183.842 113.555C183.968 113.747 184.112 113.906 184.274 114.032C184.148 114.224 183.959 114.371 183.707 114.473C183.461 114.575 183.218 114.626 182.978 114.626C182.618 114.626 182.354 114.527 182.186 114.329C182.018 114.131 181.862 113.84 181.718 113.456L180.818 111.017C180.668 110.603 180.467 110.258 180.215 109.982C179.963 109.7 179.558 109.559 179 109.559H177.533V114.5C177.383 114.53 177.221 114.548 177.047 114.554C176.879 114.566 176.72 114.572 176.57 114.572C176.432 114.572 176.273 114.566 176.093 114.554C175.919 114.548 175.763 114.53 175.625 114.5V102.305L175.742 102.197C176.42 102.185 177.083 102.173 177.731 102.161C178.379 102.143 179.009 102.134 179.621 102.134C180.869 102.134 181.862 102.449 182.6 103.079C183.338 103.709 183.707 104.624 183.707 105.824ZM177.533 103.637V108.029C177.881 108.017 178.238 108.008 178.604 108.002C178.97 107.996 179.276 107.993 179.522 107.993C180.11 107.993 180.563 107.885 180.881 107.669C181.199 107.453 181.418 107.18 181.538 106.85C181.658 106.514 181.718 106.172 181.718 105.824C181.718 105.458 181.658 105.11 181.538 104.78C181.418 104.45 181.199 104.18 180.881 103.97C180.563 103.76 180.11 103.655 179.522 103.655C179.264 103.655 178.943 103.655 178.559 103.655C178.181 103.649 177.839 103.643 177.533 103.637ZM188.983 111.53C188.917 111.53 188.764 111.53 188.524 111.53C188.29 111.524 188.095 111.518 187.939 111.512L186.985 114.518C186.865 114.548 186.733 114.566 186.589 114.572C186.445 114.584 186.301 114.59 186.157 114.59C185.803 114.59 185.491 114.548 185.221 114.464L185.167 114.374L189.226 102.206C189.376 102.182 189.559 102.164 189.775 102.152C189.991 102.14 190.18 102.134 190.342 102.134C190.492 102.134 190.675 102.14 190.891 102.152C191.107 102.164 191.281 102.185 191.413 102.215L195.454 114.383C195.316 114.467 195.145 114.527 194.941 114.563C194.743 114.605 194.542 114.626 194.338 114.626C194.032 114.626 193.795 114.557 193.627 114.419C193.459 114.281 193.315 114.011 193.195 113.609L192.529 111.512C192.373 111.518 192.172 111.524 191.926 111.53C191.68 111.53 191.524 111.53 191.458 111.53H188.983ZM189.469 106.706L188.434 109.955C188.572 109.955 188.74 109.952 188.938 109.946C189.142 109.94 189.28 109.937 189.352 109.937H191.143C191.209 109.937 191.335 109.94 191.521 109.946C191.713 109.946 191.884 109.949 192.034 109.955L191.206 107.354C191.044 106.832 190.876 106.28 190.702 105.698C190.534 105.11 190.39 104.579 190.27 104.105H190.171C190.081 104.507 189.964 104.96 189.82 105.464C189.682 105.962 189.565 106.376 189.469 106.706ZM200.284 106.949C200.062 106.505 199.855 106.073 199.663 105.653C199.477 105.233 199.3 104.834 199.132 104.456L199.069 104.465C199.093 104.885 199.117 105.353 199.141 105.869C199.165 106.379 199.183 106.898 199.195 107.426C199.213 107.948 199.222 108.431 199.222 108.875V114.5C199.06 114.53 198.904 114.548 198.754 114.554C198.604 114.566 198.466 114.572 198.34 114.572C198.22 114.572 198.079 114.566 197.917 114.554C197.755 114.548 197.596 114.53 197.44 114.5V102.224C197.596 102.194 197.788 102.173 198.016 102.161C198.25 102.143 198.439 102.134 198.583 102.134C198.733 102.134 198.913 102.14 199.123 102.152C199.339 102.158 199.54 102.176 199.726 102.206L203.533 109.748C203.761 110.222 203.974 110.684 204.172 111.134C204.376 111.578 204.565 111.983 204.739 112.349L204.802 112.34C204.766 111.86 204.736 111.35 204.712 110.81C204.694 110.264 204.679 109.733 204.667 109.217C204.655 108.695 204.649 108.227 204.649 107.813V103.322C204.649 102.902 204.721 102.599 204.865 102.413C205.015 102.221 205.288 102.125 205.684 102.125H206.305L206.422 102.233V114.482C206.266 114.512 206.077 114.533 205.855 114.545C205.633 114.563 205.435 114.572 205.261 114.572C205.081 114.572 204.892 114.566 204.694 114.554C204.496 114.548 204.301 114.53 204.109 114.5L200.284 106.949ZM211.537 105.131C211.537 104.891 211.537 104.672 211.537 104.474C211.537 104.276 211.537 104.051 211.537 103.799C211.411 103.799 211.237 103.802 211.015 103.808C210.793 103.814 210.619 103.817 210.493 103.817H208.36C208.33 103.679 208.309 103.541 208.297 103.403C208.285 103.265 208.279 103.136 208.279 103.016C208.279 102.896 208.285 102.767 208.297 102.629C208.309 102.491 208.33 102.35 208.36 102.206H216.631C216.703 102.44 216.739 102.692 216.739 102.962C216.739 103.274 216.652 103.496 216.478 103.628C216.304 103.754 216.034 103.817 215.668 103.817H214.489C214.369 103.817 214.195 103.814 213.967 103.808C213.745 103.802 213.574 103.799 213.454 103.799H213.445C213.445 104.051 213.445 104.276 213.445 104.474C213.451 104.672 213.454 104.891 213.454 105.131V114.5C213.298 114.53 213.133 114.548 212.959 114.554C212.791 114.566 212.635 114.572 212.491 114.572C212.347 114.572 212.188 114.566 212.014 114.554C211.846 114.548 211.687 114.53 211.537 114.5V105.131Z" fill="black"/>
<path d="M95 74.4999C97.7614 74.4999 100 72.2613 100 69.4999C100 66.7385 97.7614 64.4999 95 64.4999C92.2386 64.4999 90 66.7385 90 69.4999C90 72.2613 92.2386 74.4999 95 74.4999Z" fill="#E78200"/>
<path d="M235 74.4999C237.761 74.4999 240 72.2613 240 69.4999C240 66.7385 237.761 64.4999 235 64.4999C232.239 64.4999 230 66.7385 230 69.4999C230 72.2613 232.239 74.4999 235 74.4999Z" fill="#E78200"/>
<g clip-path="url(#clip0_1_16)">
<g clip-path="url(#clip1_1_16)">
<path d="M716.586 72.8V84H714.506V79.2H708.714V84H706.634V72.8H708.714V77.424H714.506V72.8H716.586ZM723.435 84.112C722.571 84.112 721.792 83.9253 721.099 83.552C720.405 83.1787 719.861 82.6613 719.467 82C719.083 81.328 718.891 80.5707 718.891 79.728C718.891 78.8853 719.083 78.1333 719.467 77.472C719.861 76.8107 720.405 76.2933 721.099 75.92C721.792 75.5467 722.571 75.36 723.435 75.36C724.309 75.36 725.093 75.5467 725.787 75.92C726.48 76.2933 727.019 76.8107 727.403 77.472C727.797 78.1333 727.995 78.8853 727.995 79.728C727.995 80.5707 727.797 81.328 727.403 82C727.019 82.6613 726.48 83.1787 725.787 83.552C725.093 83.9253 724.309 84.112 723.435 84.112ZM723.435 82.4C724.171 82.4 724.779 82.1547 725.259 81.664C725.739 81.1733 725.979 80.528 725.979 79.728C725.979 78.928 725.739 78.2827 725.259 77.792C724.779 77.3013 724.171 77.056 723.435 77.056C722.699 77.056 722.091 77.3013 721.611 77.792C721.141 78.2827 720.907 78.928 720.907 79.728C720.907 80.528 721.141 81.1733 721.611 81.664C722.091 82.1547 722.699 82.4 723.435 82.4ZM740.891 75.36C741.969 75.36 742.822 75.6747 743.451 76.304C744.081 76.9227 744.395 77.856 744.395 79.104V84H742.395V79.36C742.395 78.6133 742.23 78.0533 741.899 77.68C741.569 77.296 741.094 77.104 740.475 77.104C739.803 77.104 739.265 77.328 738.859 77.776C738.454 78.2133 738.251 78.8427 738.251 79.664V84H736.251V79.36C736.251 78.6133 736.086 78.0533 735.755 77.68C735.425 77.296 734.95 77.104 734.331 77.104C733.649 77.104 733.105 77.3227 732.699 77.76C732.305 78.1973 732.107 78.832 732.107 79.664V84H730.107V75.456H732.011V76.544C732.331 76.16 732.731 75.8667 733.211 75.664C733.691 75.4613 734.225 75.36 734.811 75.36C735.451 75.36 736.017 75.4827 736.507 75.728C737.009 75.9627 737.403 76.3147 737.691 76.784C738.043 76.336 738.497 75.9893 739.051 75.744C739.606 75.488 740.219 75.36 740.891 75.36ZM755.261 79.776C755.261 79.9147 755.251 80.112 755.229 80.368H748.525C748.643 80.9973 748.947 81.4987 749.437 81.872C749.939 82.2347 750.557 82.416 751.293 82.416C752.232 82.416 753.005 82.1067 753.613 81.488L754.685 82.72C754.301 83.1787 753.816 83.5253 753.229 83.76C752.643 83.9947 751.981 84.112 751.245 84.112C750.307 84.112 749.48 83.9253 748.765 83.552C748.051 83.1787 747.496 82.6613 747.101 82C746.717 81.328 746.525 80.5707 746.525 79.728C746.525 78.896 746.712 78.1493 747.085 77.488C747.469 76.816 747.997 76.2933 748.669 75.92C749.341 75.5467 750.099 75.36 750.941 75.36C751.773 75.36 752.515 75.5467 753.165 75.92C753.827 76.2827 754.339 76.8 754.701 77.472C755.075 78.1333 755.261 78.9013 755.261 79.776ZM750.941 76.96C750.301 76.96 749.757 77.152 749.309 77.536C748.872 77.9093 748.605 78.4107 748.509 79.04H753.357C753.272 78.4213 753.011 77.92 752.573 77.536C752.136 77.152 751.592 76.96 750.941 76.96Z" fill="#FA4A0C"/>
<path d="M876.356 72.8C877.326 72.8 878.169 72.96 878.884 73.28C879.609 73.6 880.164 74.0587 880.548 74.656C880.932 75.2533 881.124 75.9627 881.124 76.784C881.124 77.5947 880.932 78.304 880.548 78.912C880.164 79.5093 879.609 79.968 878.884 80.288C878.169 80.608 877.326 80.768 876.356 80.768H873.828V84H871.748V72.8H876.356ZM876.26 79.008C877.166 79.008 877.854 78.816 878.324 78.432C878.793 78.048 879.028 77.4987 879.028 76.784C879.028 76.0693 878.793 75.52 878.324 75.136C877.854 74.752 877.166 74.56 876.26 74.56H873.828V79.008H876.26ZM885.035 76.704C885.611 75.808 886.624 75.36 888.075 75.36V77.264C887.904 77.232 887.749 77.216 887.611 77.216C886.832 77.216 886.224 77.4453 885.787 77.904C885.349 78.352 885.131 79.0027 885.131 79.856V84H883.131V75.456H885.035V76.704ZM893.733 84.112C892.869 84.112 892.091 83.9253 891.397 83.552C890.704 83.1787 890.16 82.6613 889.765 82C889.381 81.328 889.189 80.5707 889.189 79.728C889.189 78.8853 889.381 78.1333 889.765 77.472C890.16 76.8107 890.704 76.2933 891.397 75.92C892.091 75.5467 892.869 75.36 893.733 75.36C894.608 75.36 895.392 75.5467 896.085 75.92C896.779 76.2933 897.317 76.8107 897.701 77.472C898.096 78.1333 898.293 78.8853 898.293 79.728C898.293 80.5707 898.096 81.328 897.701 82C897.317 82.6613 896.779 83.1787 896.085 83.552C895.392 83.9253 894.608 84.112 893.733 84.112ZM893.733 82.4C894.469 82.4 895.077 82.1547 895.557 81.664C896.037 81.1733 896.277 80.528 896.277 79.728C896.277 78.928 896.037 78.2827 895.557 77.792C895.077 77.3013 894.469 77.056 893.733 77.056C892.997 77.056 892.389 77.3013 891.909 77.792C891.44 78.2827 891.205 78.928 891.205 79.728C891.205 80.528 891.44 81.1733 891.909 81.664C892.389 82.1547 892.997 82.4 893.733 82.4ZM908.774 72.128V84H906.854V82.896C906.523 83.3013 906.112 83.6053 905.622 83.808C905.142 84.0107 904.608 84.112 904.022 84.112C903.2 84.112 902.459 83.9307 901.798 83.568C901.147 83.2053 900.635 82.6933 900.262 82.032C899.888 81.36 899.702 80.592 899.702 79.728C899.702 78.864 899.888 78.1013 900.262 77.44C900.635 76.7787 901.147 76.2667 901.798 75.904C902.459 75.5413 903.2 75.36 904.022 75.36C904.587 75.36 905.104 75.456 905.574 75.648C906.043 75.84 906.443 76.128 906.774 76.512V72.128H908.774ZM904.262 82.4C904.742 82.4 905.174 82.2933 905.558 82.08C905.942 81.856 906.246 81.5413 906.47 81.136C906.694 80.7307 906.806 80.2613 906.806 79.728C906.806 79.1947 906.694 78.7253 906.47 78.32C906.246 77.9147 905.942 77.6053 905.558 77.392C905.174 77.168 904.742 77.056 904.262 77.056C903.782 77.056 903.35 77.168 902.966 77.392C902.582 77.6053 902.278 77.9147 902.054 78.32C901.83 78.7253 901.718 79.1947 901.718 79.728C901.718 80.2613 901.83 80.7307 902.054 81.136C902.278 81.5413 902.582 81.856 902.966 82.08C903.35 82.2933 903.782 82.4 904.262 82.4ZM919.862 75.456V84H917.958V82.912C917.638 83.296 917.238 83.5947 916.758 83.808C916.278 84.0107 915.761 84.112 915.206 84.112C914.065 84.112 913.163 83.7973 912.502 83.168C911.851 82.528 911.526 81.584 911.526 80.336V75.456H913.526V80.064C913.526 80.832 913.697 81.408 914.038 81.792C914.39 82.1653 914.886 82.352 915.526 82.352C916.241 82.352 916.806 82.1333 917.222 81.696C917.649 81.248 917.862 80.608 917.862 79.776V75.456H919.862ZM926.601 84.112C925.715 84.112 924.921 83.9253 924.217 83.552C923.513 83.1787 922.963 82.6613 922.569 82C922.174 81.328 921.977 80.5707 921.977 79.728C921.977 78.8853 922.174 78.1333 922.569 77.472C922.963 76.8107 923.507 76.2933 924.201 75.92C924.905 75.5467 925.705 75.36 926.601 75.36C927.443 75.36 928.179 75.5307 928.809 75.872C929.449 76.2133 929.929 76.704 930.249 77.344L928.713 78.24C928.467 77.8453 928.158 77.552 927.785 77.36C927.422 77.1573 927.022 77.056 926.585 77.056C925.838 77.056 925.219 77.3013 924.729 77.792C924.238 78.272 923.993 78.9173 923.993 79.728C923.993 80.5387 924.233 81.1893 924.713 81.68C925.203 82.16 925.827 82.4 926.585 82.4C927.022 82.4 927.422 82.304 927.785 82.112C928.158 81.9093 928.467 81.6107 928.713 81.216L930.249 82.112C929.918 82.752 929.433 83.248 928.793 83.6C928.163 83.9413 927.433 84.112 926.601 84.112ZM937.423 83.536C937.188 83.728 936.9 83.872 936.559 83.968C936.228 84.064 935.876 84.112 935.503 84.112C934.564 84.112 933.839 83.8667 933.327 83.376C932.815 82.8853 932.559 82.1707 932.559 81.232V77.12H931.151V75.52H932.559V73.568H934.559V75.52H936.847V77.12H934.559V81.184C934.559 81.6 934.66 81.92 934.863 82.144C935.066 82.3573 935.359 82.464 935.743 82.464C936.191 82.464 936.564 82.3467 936.863 82.112L937.423 83.536Z" fill="#252B42"/>
<path d="M1056.04 74.544V77.952H1061.45V79.712H1056.04V84H1053.96V72.8H1062.14V74.544H1056.04ZM1067.15 75.36C1068.41 75.36 1069.37 75.664 1070.03 76.272C1070.71 76.8693 1071.04 77.776 1071.04 78.992V84H1069.15V82.96C1068.91 83.3333 1068.56 83.6213 1068.1 83.824C1067.65 84.016 1067.11 84.112 1066.47 84.112C1065.83 84.112 1065.27 84.0053 1064.79 83.792C1064.31 83.568 1063.93 83.264 1063.67 82.88C1063.41 82.4853 1063.28 82.0427 1063.28 81.552C1063.28 80.784 1063.56 80.1707 1064.13 79.712C1064.71 79.2427 1065.61 79.008 1066.83 79.008H1069.04V78.88C1069.04 78.2827 1068.86 77.824 1068.5 77.504C1068.15 77.184 1067.62 77.024 1066.91 77.024C1066.43 77.024 1065.96 77.0987 1065.49 77.248C1065.03 77.3973 1064.64 77.6053 1064.32 77.872L1063.54 76.416C1063.99 76.0747 1064.52 75.8133 1065.15 75.632C1065.78 75.4507 1066.45 75.36 1067.15 75.36ZM1066.88 82.656C1067.38 82.656 1067.83 82.544 1068.21 82.32C1068.6 82.0853 1068.88 81.7547 1069.04 81.328V80.336H1066.98C1065.83 80.336 1065.25 80.7147 1065.25 81.472C1065.25 81.8347 1065.39 82.1227 1065.68 82.336C1065.97 82.5493 1066.37 82.656 1066.88 82.656ZM1082.24 75.456V87.104H1080.24V82.96C1079.57 83.728 1078.66 84.112 1077.5 84.112C1076.67 84.112 1075.92 83.9307 1075.26 83.568C1074.61 83.2053 1074.1 82.6933 1073.73 82.032C1073.36 81.3707 1073.18 80.6027 1073.18 79.728C1073.18 78.864 1073.37 78.1013 1073.74 77.44C1074.12 76.7787 1074.63 76.2667 1075.28 75.904C1075.93 75.5413 1076.67 75.36 1077.5 75.36C1078.09 75.36 1078.62 75.4613 1079.1 75.664C1079.59 75.8667 1080 76.1707 1080.34 76.576V75.456H1082.24ZM1077.73 82.4C1078.46 82.4 1079.07 82.1547 1079.55 81.664C1080.03 81.1733 1080.27 80.528 1080.27 79.728C1080.27 78.928 1080.03 78.2827 1079.55 77.792C1079.07 77.3013 1078.46 77.056 1077.73 77.056C1076.99 77.056 1076.38 77.3013 1075.9 77.792C1075.43 78.2827 1075.2 78.928 1075.2 79.728C1075.2 80.528 1075.43 81.1733 1075.9 81.664C1076.38 82.1547 1076.99 82.4 1077.73 82.4Z" fill="#252B42"/>
<path d="M1204.92 84.16C1206.76 84.16 1208.32 83.504 1209.36 82.288L1208.02 81.008C1207.2 81.904 1206.2 82.336 1205.03 82.336C1202.71 82.336 1201.03 80.704 1201.03 78.4C1201.03 76.096 1202.71 74.464 1205.03 74.464C1206.2 74.464 1207.2 74.896 1208.02 75.776L1209.36 74.512C1208.32 73.296 1206.76 72.64 1204.93 72.64C1201.49 72.64 1198.93 75.056 1198.93 78.4C1198.93 81.744 1201.49 84.16 1204.92 84.16ZM1214.89 84.112C1217.55 84.112 1219.45 82.288 1219.45 79.728C1219.45 77.168 1217.55 75.36 1214.89 75.36C1212.27 75.36 1210.35 77.168 1210.35 79.728C1210.35 82.288 1212.27 84.112 1214.89 84.112ZM1214.89 82.4C1213.45 82.4 1212.36 81.36 1212.36 79.728C1212.36 78.096 1213.45 77.056 1214.89 77.056C1216.35 77.056 1217.44 78.096 1217.44 79.728C1217.44 81.36 1216.35 82.4 1214.89 82.4ZM1226.41 75.36C1225.17 75.36 1224.13 75.776 1223.47 76.56V75.456H1221.57V84H1223.57V79.68C1223.57 77.968 1224.53 77.104 1225.95 77.104C1227.23 77.104 1227.98 77.84 1227.98 79.36V84H1229.98V79.104C1229.98 76.528 1228.46 75.36 1226.41 75.36ZM1237.29 82.112C1236.99 82.352 1236.59 82.464 1236.17 82.464C1235.41 82.464 1234.99 82.016 1234.99 81.184V77.12H1237.28V75.52H1234.99V73.568H1232.99V75.52H1231.58V77.12H1232.99V81.232C1232.99 83.12 1234.06 84.112 1235.93 84.112C1236.65 84.112 1237.37 83.92 1237.85 83.536L1237.29 82.112ZM1242.96 75.36C1241.59 75.36 1240.26 75.712 1239.35 76.416L1240.13 77.872C1240.77 77.344 1241.76 77.024 1242.72 77.024C1244.15 77.024 1244.85 77.712 1244.85 78.88V79.008H1242.64C1240.05 79.008 1239.09 80.128 1239.09 81.552C1239.09 83.04 1240.32 84.112 1242.28 84.112C1243.56 84.112 1244.48 83.696 1244.96 82.96V84H1246.85V78.992C1246.85 76.528 1245.43 75.36 1242.96 75.36ZM1242.69 82.656C1241.67 82.656 1241.06 82.192 1241.06 81.472C1241.06 80.848 1241.43 80.336 1242.79 80.336H1244.85V81.328C1244.52 82.208 1243.67 82.656 1242.69 82.656ZM1253.62 84.112C1255.28 84.112 1256.61 83.392 1257.26 82.112L1255.73 81.216C1255.22 82.032 1254.45 82.4 1253.6 82.4C1252.13 82.4 1251.01 81.392 1251.01 79.728C1251.01 78.08 1252.13 77.056 1253.6 77.056C1254.45 77.056 1255.22 77.424 1255.73 78.24L1257.26 77.344C1256.61 76.048 1255.28 75.36 1253.62 75.36C1250.91 75.36 1248.99 77.168 1248.99 79.728C1248.99 82.288 1250.91 84.112 1253.62 84.112ZM1263.88 82.112C1263.57 82.352 1263.17 82.464 1262.76 82.464C1261.99 82.464 1261.57 82.016 1261.57 81.184V77.12H1263.86V75.52H1261.57V73.568H1259.57V75.52H1258.17V77.12H1259.57V81.232C1259.57 83.12 1260.65 84.112 1262.52 84.112C1263.24 84.112 1263.96 83.92 1264.44 83.536L1263.88 82.112Z" fill="#252B42"/>
</g>
</g>
<defs>
<clipPath id="clip0_1_16">
<rect width="580" height="48" fill="white" transform="translate(695 54)"/>
</clipPath>
<clipPath id="clip1_1_16">
<rect width="580" height="48" fill="white" transform="translate(695 54)"/>
</clipPath>
</defs>
</svg>
